<?xml version="1.0" standalone="no"?>
<!DOCTYPE svg PUBLIC "-//W3C//DTD SVG 20010904//EN"
 "http://www.w3.org/TR/2001/REC-SVG-20010904/DTD/svg10.dtd">
<svg version="1.0" xmlns="http://www.w3.org/2000/svg"
 width="558.000000pt" height="559.000000pt" viewBox="0 0 558.000000 559.000000"
 preserveAspectRatio="xMidYMid meet">

<g transform="translate(0.000000,559.000000) scale(0.100000,-0.100000)"
fill="#000000" stroke="none">
<path d="M2729 5137 c-52 -35 -79 -82 -79 -139 0 -61 18 -96 69 -139 l40 -34
-25 -120 c-37 -175 -39 -201 -21 -229 9 -13 83 -60 167 -106 83 -45 201 -116
263 -157 90 -61 121 -77 159 -81 l48 -5 77 75 c168 160 179 168 239 168 48 0
59 4 93 35 94 85 74 248 -35 297 -78 34 -155 4 -194 -77 l-23 -47 -56 7 c-31
4 -59 9 -63 12 -5 2 -8 44 -8 93 0 85 1 88 25 94 31 8 74 71 82 120 12 77 -45
163 -125 187 -123 36 -263 -114 -196 -209 9 -13 14 -25 13 -26 -9 -9 -129 -66
-137 -66 -5 0 -26 27 -47 61 -36 59 -37 63 -25 99 45 135 -124 266 -241 187z
m109 -93 c29 -20 31 -79 3 -94 -32 -17 -60 -11 -77 16 -16 23 -16 28 -1 60 18
37 40 43 75 18z m526 -86 c9 -12 16 -29 16 -37 0 -23 -31 -51 -57 -51 -47 0
-82 67 -51 98 21 21 75 15 92 -10z m-428 -234 c20 -36 48 -73 62 -82 25 -16
28 -15 132 40 59 32 110 54 114 51 3 -3 6 -36 6 -72 0 -85 16 -191 30 -205 6
-6 52 -11 106 -12 52 -1 97 -4 100 -7 3 -3 -32 -31 -79 -62 -47 -30 -90 -62
-97 -70 -11 -13 -16 -12 -41 6 -28 19 -298 169 -381 211 -43 21 -44 23 -27
149 10 76 22 119 34 119 2 0 21 -29 41 -66z m763 -150 c26 -33 26 -37 -2 -70
-20 -23 -26 -25 -45 -15 -30 16 -38 55 -18 86 21 32 39 32 65 -1z"/>
<path d="M2394 4144 c-33 -32 -27 -61 29 -132 23 -30 57 -72 74 -95 36 -46 63
-121 63 -174 0 -46 -33 -106 -74 -138 -18 -14 -83 -42 -142 -62 -146 -47 -197
-75 -267 -142 -76 -72 -120 -140 -153 -238 -23 -68 -26 -90 -22 -178 3 -87 8
-108 35 -165 17 -35 29 -68 27 -72 -3 -4 -24 -8 -47 -8 -194 -1 -391 -119
-480 -286 -75 -145 -84 -298 -27 -462 17 -48 33 -94 36 -103 4 -13 -10 -25
-58 -50 -86 -46 -206 -165 -248 -248 -46 -92 -58 -130 -71 -226 -15 -114 0
-205 50 -310 54 -114 115 -190 225 -285 53 -46 96 -85 96 -87 0 -2 -7 -14 -16
-27 -14 -22 -14 -25 6 -39 13 -9 36 -13 58 -11 202 20 425 24 1407 26 611 1
1183 -2 1272 -6 l162 -9 13 28 c11 25 10 29 -16 50 l-29 23 104 100 c111 106
156 171 197 280 22 59 25 82 26 197 0 116 -3 137 -26 197 -58 153 -151 262
-284 337 -43 25 -81 46 -83 47 -1 2 9 27 23 56 39 79 59 188 51 277 -8 92 -45
211 -86 276 -86 138 -244 253 -419 305 -41 13 -76 24 -78 25 -2 2 6 34 18 72
25 80 29 206 10 298 -35 171 -184 393 -389 578 -155 141 -317 243 -508 321
-142 58 -257 86 -356 86 -70 0 -80 -3 -103 -26z m307 -154 c109 -39 315 -149
413 -219 44 -31 129 -104 189 -163 86 -84 107 -110 100 -123 -6 -10 -4 -41 5
-83 8 -40 12 -103 10 -157 -3 -75 -9 -101 -34 -156 -45 -94 -135 -187 -232
-237 -162 -84 -226 -104 -387 -122 -44 -5 -107 -12 -139 -15 -33 -4 -66 -14
-75 -23 -15 -14 -14 -15 6 -10 13 3 26 2 29 -3 3 -5 0 -10 -5 -10 -6 -1 -15
-2 -21 -3 -5 0 -14 -6 -21 -13 -9 -9 -5 -13 17 -18 56 -13 48 -14 -76 -11
-135 4 -208 22 -282 71 -79 52 -141 175 -155 305 -11 106 48 239 140 313 57
46 90 62 182 87 114 31 202 79 252 138 75 89 85 112 86 209 2 85 1 90 -37 158
-22 39 -46 80 -54 93 -19 29 -10 28 89 -8z m1047 -1341 c97 -19 160 -103 184
-246 14 -86 1 -188 -33 -255 -29 -58 -109 -139 -182 -187 -57 -36 -118 -57
-131 -43 -3 3 12 24 34 48 21 23 51 66 66 96 25 46 28 65 29 143 0 73 -4 99
-22 138 -37 79 -97 143 -168 178 -59 29 -69 31 -152 27 -148 -6 -246 -66 -305
-186 -30 -60 -33 -76 -33 -152 0 -110 24 -164 106 -241 l60 -57 -248 -7 c-136
-4 -293 -9 -348 -10 -55 -1 -109 -4 -120 -8 -61 -17 -64 -11 -12 24 130 86
189 254 141 404 -23 76 -103 164 -181 201 -52 24 -65 26 -152 22 -111 -5 -171
-29 -232 -95 -48 -51 -64 -80 -83 -143 -43 -145 10 -289 138 -377 81 -56 206
-80 286 -55 32 10 33 10 16 -3 -11 -8 -24 -15 -29 -15 -4 0 -6 -4 -3 -9 3 -4
-27 -13 -67 -19 -40 -6 -81 -13 -92 -16 -11 -2 -27 -6 -35 -7 -8 -2 39 -6 105
-9 97 -5 74 -6 -126 -8 -331 -3 -391 10 -515 108 -54 44 -66 60 -92 123 -39
94 -45 136 -32 227 14 98 48 169 108 228 118 115 247 141 577 120 329 -22 524
-19 770 12 44 6 139 17 210 26 72 8 139 18 150 21 29 9 220 18 295 15 36 -2
89 -8 118 -13z m-1327 -257 c24 -26 29 -42 29 -82 0 -41 -5 -55 -30 -83 -70
-80 -203 -42 -217 62 -7 49 10 94 46 122 21 17 36 20 85 17 51 -4 63 -9 87
-36z m1043 28 c57 -21 84 -117 51 -180 -20 -38 -45 -51 -106 -52 -41 -1 -54 3
-79 27 -40 38 -55 85 -40 129 11 33 42 69 70 79 25 9 77 8 104 -3z m-1276
-226 c45 -31 18 -94 -42 -94 -39 0 -56 15 -56 51 0 29 31 59 60 59 9 0 26 -7
38 -16z m1080 0 c30 -21 28 -58 -4 -83 -32 -25 -51 -26 -76 -4 -39 35 -10 98
47 102 6 1 21 -6 33 -15z m-1688 -269 c10 -12 9 -16 -4 -20 -9 -3 -23 -7 -32
-10 -29 -9 -38 7 -13 26 29 23 33 23 49 4z m783 -112 c-7 -2 -19 -2 -25 0 -7
3 -2 5 12 5 14 0 19 -2 13 -5z m-65 -10 c-10 -2 -26 -2 -35 0 -10 3 -2 5 17 5
19 0 27 -2 18 -5z m-413 -48 c55 -8 233 -20 395 -26 331 -14 972 -2 1419 27
257 17 382 15 422 -7 63 -33 98 -114 106 -245 7 -107 -7 -162 -68 -266 -65
-111 -155 -165 -364 -217 -116 -29 -133 -30 -545 -46 -234 -9 -677 -19 -985
-22 -504 -5 -570 -4 -664 11 -69 12 -126 28 -167 49 -53 26 -65 29 -79 17 -10
-8 -13 -21 -9 -34 10 -34 -50 40 -85 105 -50 92 -62 238 -30 361 11 42 66 127
118 181 109 114 276 149 536 112z m2551 -381 l-15 -39 2 41 c1 23 5 40 10 37
4 -2 7 2 8 9 0 7 3 8 5 2 2 -5 -2 -28 -10 -50z m-33 -69 c-3 -9 -8 -14 -10
-11 -3 3 -2 9 2 15 9 16 15 13 8 -4z m-2973 -395 c0 -5 -2 -10 -4 -10 -3 0 -8
5 -11 10 -3 6 -1 10 4 10 6 0 11 -4 11 -10z m175 -88 c-3 -3 -11 0 -18 7 -9
10 -8 11 6 5 10 -3 15 -9 12 -12z m65 -2 c-8 -5 -24 -9 -35 -9 l-20 0 20 9
c11 5 27 9 35 9 13 1 13 0 0 -9z m2449 -1 c-18 -11 -39 -11 -39 0 0 5 12 9 26
9 18 0 22 -3 13 -9z"/>
<path d="M1337 1043 c-4 -3 -7 -11 -7 -17 0 -6 5 -5 12 2 6 6 9 14 7 17 -3 3
-9 2 -12 -2z"/>
</g>
</svg>
